# xmcd
#
# Track frame offsets:
#	150
#	12421
#	16985
#	26841
#	33741
#	49497
#	63969
#	70237
#	79146
#	87006
#	93367
#	101599
#	109054
#	118033
#	122540
#
# Disc length: 1703 seconds
#
# Revision: 0
# Processed by: cddbd v1.5.1PL0 Copyright (c) Steve Scherf et al.
# Submitted via: EasyCDDAExtractor 7.5.2.1
#
DISCID=c306a50f
DTITLE=Geraldino Mariano - Vol 1
DYEAR=1900
DGENRE=Country
TTITLE0=Cavalinho Do Bin Laden
TTITLE1=O Turco E O Brinquedo
TTITLE2=Filho De Fazendeiro
TTITLE3=Bicicletinha
TTITLE4=Fazendeiro E O Jegue
TTITLE5=Fazendeiro E O Urubu
TTITLE6=Doida Da Praca
TTITLE7=Cumpadre Que Cumbina
TTITLE8=O Bebado E A Cobra
TTITLE9=Marlene E A Vo
TTITLE10=Perereca De Banheiro
TTITLE11=Joao Bocao
TTITLE12=Fia Do Fazendeiro
TTITLE13=Bebado Rico
TTITLE14=Veio Do Relogio
EXTD=
EXTT0=
EXTT1=
EXTT2=
EXTT3=
EXTT4=
EXTT5=
EXTT6=
EXTT7=
EXTT8=
EXTT9=
EXTT10=
EXTT11=
EXTT12=
EXTT13=
EXTT14=
PLAYORDER=
